<?xml version="1.0" encoding="utf-8"?>
<!-- Svg Vector Icons : http://www.onlinewebfonts.com/icon -->
<!DOCTYPE svg PUBLIC "-//W3C//DTD SVG 1.1//EN" "http://www.w3.org/Graphics/SVG/1.1/DTD/svg11.dtd">
<svg version="1.1" xmlns="http://www.w3.org/2000/svg" xmlns:xlink="http://www.w3.org/1999/xlink" x="0px" y="0px" viewBox="0 0 1000 1000" enable-background="new 0 0 1000 1000" xml:space="preserve">
<metadata> Svg Vector Icons : http://www.onlinewebfonts.com/icon </metadata>
<g><g transform="translate(0.000000,511.000000) scale(0.100000,-0.100000)"><path d="M4576.7,5001.5C2396.6,4789.1,613.3,3188.1,194.5,1066.1C-126.1-555,378.8-2198,1563.1-3374.3c1194.3-1186.2,2921.5-1675.1,4560.6-1288.4c847.6,198.3,1621.1,621.2,2270.3,1238.3c813.5,773.5,1364.6,1885.6,1484.8,2999.7c28,246.4,28,831.5,2,1068c-156.3,1412.7-937.8,2709.1-2124,3520.6c-623.2,426.8-1298.4,689.3-2083.9,805.5C5416.3,5009.5,4827.2,5025.5,4576.7,5001.5z M5432.4,4839.2c2148-198.4,3891.3-1803.4,4248-3911.3C9938.8-609.1,9451.9-2160,8365.9-3244c-721.3-723.3-1637.1-1182.2-2677-1344.5c-322.6-52.1-1038-50.1-1368.6,0c-1015.9,154.3-1901.6,591.1-2622.9,1292.4C951.9-2566.7,505.1-1719.2,320.7-675.2c-54.1,300.6-74.1,945.8-40.1,1270.4c92.2,889.7,448.9,1769.3,999.9,2470.6c174.3,222.4,635.2,671.3,865.6,841.6c753.4,559,1516.9,843.6,2524.7,939.8C4835.2,4863.2,5217.9,4859.2,5432.4,4839.2z"/><path d="M2887.6,3121.9c-60.1-4-120.2-16-134.3-28.1c-20-16-26-601.1-26-2983.6v-2961.6l44.1-30.1c40.1-28,240.4-32.1,1769.3-32.1c1162.2,0,1765.3,8,1843.5,22c216.4,40.1,390.7,164.3,486.9,346.7c54.1,102.2,54.1,104.2,60.1,619.2l6,515h146.3c86.2,0,154.3,10,168.3,24.1c18,18,24.1,152.3,24.1,478.9c0,539,8,519-202.4,519h-138.3v210.4V32.1h146.3c86.2,0,156.3,10,170.3,24.1c18,18,24.1,152.3,24.1,478.9c0,539,8,519-202.4,519h-138.3v190.4v190.4h146.3c86.2,0,156.3,10,170.3,24c18,18,24.1,152.3,24.1,478.9c0,539,8,519-198.4,519h-136.3l-12,104.2c-28.1,228.4-190.4,434.8-412.8,519c-110.2,42.1-128.2,42.1-1815.4,44.1C3765.2,3125.9,2947.7,3125.9,2887.6,3121.9z M6524.4,2907.5c126.2-64.1,196.4-146.3,230.4-268.5c28.1-102.2,28.1-4173.8,0-4306.1c-28.1-122.2-112.2-226.4-234.4-288.6l-96.2-46.1l-1767.3-6l-1769.3-6V469c0,1364.6,6,2488.7,14,2496.7c8,6,799.5,10,1759.3,8l1745.3-6L6524.4,2907.5z M7115.5,1945.7v-350.7h-90.2h-90.2v350.7v350.7h90.2h90.2V1945.7z M7115.5,543.1V192.4h-90.2h-90.2v350.7v350.7h90.2h90.2V543.1z M7115.5-899.6v-350.7h-90.2h-90.2v350.7V-549h90.2h90.2V-899.6z M6754.8-2410.5c-34.1-128.2-100.2-208.4-230.4-272.5l-120.2-60.1H4650.9H2897.6l-6,284.6l-6,284.5l1769.3,6l1769.3,6l124.2,58.1c68.1,30,144.3,78.2,170.3,106.2l46.1,50.1l6-192.4C6772.9-2246.1,6766.9-2366.4,6754.8-2410.5z"/><path d="M4717,1959.8c-220.4-78.2-396.7-264.5-460.9-482.9c-90.2-314.6,76.1-663.2,390.7-817.5c98.2-48.1,138.3-56.1,284.5-56.1c208.4,0,348.6,58.1,490.9,200.4c142.3,142.3,200.4,282.5,200.4,490.9c0,142.3-8,188.3-54.1,284.5C5418.3,1899.6,5033.6,2072,4717,1959.8z M5151.8,1793.4c414.8-186.3,432.8-769.4,30-985.8c-64.1-34.1-114.2-44.1-250.5-44.1c-192.4,0-282.5,36.1-392.8,154.3c-112.2,118.2-138.2,188.3-138.2,376.7c0,188.3,26,258.5,138.2,376.7c108.2,116.2,218.4,160.3,402.8,162.3C5021.6,1833.5,5091.7,1821.5,5151.8,1793.4z"/><path d="M4284.2,573.1C4131.9,471,3959.6,270.6,3869.4,88.2c-108.2-224.4-172.3-535-124.2-613.1c14-20,266.5-24.1,1198.2-20l1180.2,6l-2,160.3c-6,350.7-222.4,733.4-539,951.8c-110.2,76.1-150.3,76.1-264.5-2c-230.4-160.3-567.1-158.3-771.5,4C4452.5,649.3,4400.4,649.3,4284.2,573.1z M4494.6,412.8c246.5-152.3,587.1-156.3,855.6-10c94.2,52.1,106.2,54.1,156.3,28.1c204.4-108.2,414.8-444.8,456.9-729.4l14-90.2h-1044c-821.5,0-1044,6-1044,26.1c2,80.1,70.1,298.6,132.2,416.8c74.1,140.3,318.6,398.7,378.7,398.7C4416.4,452.9,4458.5,434.9,4494.6,412.8z"/></g></g>
</svg>